<?xml version="1.0" encoding="UTF-8"?>
<svg id="Layer_4" data-name="Layer 4" xmlns="http://www.w3.org/2000/svg" width="1595.95591" height="227.88932" viewBox="0 0 1595.95591 227.88932">
  <defs>
    <style>
      .cls-1 {
        fill: #ffffff;
        stroke-width: 0px;
      }
    </style>
	<linearGradient id="fadeGradient" x1="0%" y1="0%" x2="100%" y2="0%">
  <stop offset="0%" style="stop-color:white;stop-opacity:0"/>
  <stop offset="40%" style="stop-color:white;stop-opacity:1"/>
</linearGradient>
<mask id="fadeMask">
  <rect width="1595.95591" height="227.88932" fill="url(#fadeGradient)"/>
</mask>
  </defs>
  <g mask="url(#fadeMask)">
  <path class="cls-1" d="m356.71561,162.68286l7.09386-69.04693-9.82591-1.00963-8.00002,77.86693.11656-.07511c3.20221-3.00185,6.76649-5.60385,10.61551-7.73526Z"/>
  <rect class="cls-1" x="133.83376" y="74.08118" width="12.84072" height="85.65224" transform="translate(-35.60187 67.78292) rotate(-24.20512)"/>
  <rect class="cls-1" x="213.00379" y="183.98431" width="45.65673" height="12.8409" transform="translate(-32.92092 330.55671) rotate(-66.45808)"/>
  <rect class="cls-1" x="1025.22334" y="51.67708" width="45.65673" height="12.8409" transform="translate(576.17702 995.71259) rotate(-66.45808)"/>
  <rect class="cls-1" x="1261.05663" y="-7.68865" width="12.84087" height="45.65673" transform="translate(738.80268 1167.19471) rotate(-66.03411)"/>
  <path class="cls-1" d="m195.98723,163.05739c6.06419,17.5524-3.28229,36.76619-20.8346,42.83021s-36.76617-3.28267-42.83036-20.83507c-1.44958-4.19573-2.00949-8.48553-1.79631-12.6689l-12.80029,4.42228c.24416,4.1463,1.03847,8.32553,2.45986,12.43966,8.37622,24.24441,34.91595,37.15481,59.16024,28.77883,24.24429-8.37598,37.1544-34.91562,28.77818-59.16003l-12.13673,4.19303Z"/>
  <path class="cls-1" d="m336.75904,182.88164c-.01829.01921-.03456.03937-.05277.05832-7.37813,7.68031-19.62996,7.92604-27.31056.54775-7.68129-7.37896-7.92739-19.63069-.54926-27.31101,4.29516-4.47108,10.23963-6.40376,15.97442-5.79888l-11.8925-11.42441c-4.91681,1.57297-9.52211,4.3507-13.34232,8.32737-12.28374,12.78684-11.87337,33.18298.91395,45.46698,12.78732,12.284,33.18295,11.87494,45.46668-.9119.01838-.01913.03435-.03923.05268-.05841l-9.26032-8.89583Z"/>
  <path class="cls-1" d="m466.63344,78.83283c.00617.0258.01424.05041.02024.076,2.43162,10.36874-4.02624,20.78338-14.39521,23.21527-10.36991,2.43211-20.78452-4.02535-23.21614-14.39409-1.41556-6.03615.19601-12.0756,3.82286-16.55886l-16.05513,3.76549c-1.35445,4.98145-1.52851,10.3568-.26948,15.72547,4.04837,17.26276,21.38651,28.01227,38.64965,23.96346,17.26315-4.04881,28.01354-21.38606,23.96518-38.64883-.00606-.02583-.01424-.05016-.02036-.07597l-12.50162,2.93207Z"/>
  <path class="cls-1" d="m827.46574,158.21632c.00617.0258.01424.05041.02024.076,2.43162,10.36874-4.02624,20.78338-14.39521,23.21527-10.36991,2.43211-20.78452-4.02535-23.21614-14.39409-1.41556-6.03615.19601-12.0756,3.82286-16.55886l-16.05513,3.76549c-1.35445,4.98145-1.52851,10.3568-.26948,15.72547,4.04837,17.26276,21.38651,28.01227,38.64965,23.96346,17.26315-4.04881,28.01354-21.38606,23.96518-38.64883-.00606-.02583-.01424-.05016-.02036-.07597l-12.50162,2.93207Z"/>
  <path class="cls-1" d="m671.91845,196.31938c-.0084-.02516-.01859-.04898-.0268-.07394-3.32807-10.11699,2.19545-21.05586,12.31247-24.38383,10.11793-3.32827,21.05691,2.1953,24.38498,12.31229,1.93743,5.88959.85955,12.04677-2.36187,16.82965l15.66501-5.15297c.91415-5.08076.61801-10.45086-1.10518-15.68918-5.54085-16.84363-23.75188-26.03842-40.59555-20.49773-16.84368,5.54069-26.03868,23.75062-20.49782,40.59425.00829.0252.01857.04873.02691.07391l12.19785-4.01245Z"/>
  <path class="cls-1" d="m550.15384,134.40158c-.0084-.02516-.01859-.04898-.0268-.07394-3.32807-10.11699,2.19545-21.05586,12.31247-24.38383,10.11793-3.32827,21.05691,2.1953,24.38498,12.31229,1.93743,5.88959.85955,12.04677-2.36187,16.82965l15.66501-5.15297c.91415-5.08076.61801-10.45086-1.10518-15.68918-5.54085-16.84363-23.75188-26.03842-40.59555-20.49773-16.84368,5.54069-26.03868,23.75062-20.49782,40.59425.00829.0252.01857.04873.02691.07391l12.19785-4.01245Z"/>
  <path class="cls-1" d="m693.959,54.32395l-7.17585,8.55203c1.60084,1.02608,4.23251,3.00644,5.87444,4.38016,7.17205,6.00047,3.73268,12.06141-.57841,17.19928l-33.08459,39.4295,10.08931,8.44119,32.5202-38.75687c11.88078-14.15926,12.50355-23.4674.29239-33.68382-2.15961-1.80683-5.45762-4.28052-7.93749-5.56146Z"/>
  <path class="cls-1" d="m123.96437,128.13917l-11.14044-.66857c.12693,1.89487.09963,5.18456-.02844,7.31924-.55944,9.32441-7.4761,10.17135-14.16904,9.76969l-51.36351-3.08246-.787,13.11714,50.48729,3.02988c18.4448,1.10692,26.29713-3.93188,27.24964-19.80763.16846-2.80772.19616-6.92554-.2485-9.67729Z"/>
  <path class="cls-1" d="m641.68848,167.82113l7.09386-69.04693-9.82591-1.00963-8.00002,77.86693.11656-.07511c3.20221-3.00185,6.76649-5.60385,10.61551-7.73526Z"/>
  <rect class="cls-1" x="433.88867" y="133.12241" width="12.84072" height="85.65224" transform="translate(-33.42926 195.99752) rotate(-24.20512)"/>
  <rect class="cls-1" x="718.91557" y="97.11543" width="12.84066" height="85.65226" transform="translate(505.2613 845.11032) rotate(-83.58759)"/>
  <rect class="cls-1" x="373.51476" y="190.66824" width="45.65682" height="12.8412" transform="translate(-11.20215 24.34992) rotate(-3.46994)"/>
  <path class="cls-1" d="m542.98862,150.52238c6.06419,17.5524-3.28229,36.76619-20.8346,42.83021-17.55231,6.06402-36.76617-3.28267-42.83036-20.83507-1.44958-4.19573-2.00949-8.48553-1.79631-12.6689l-12.80029,4.42228c.24416,4.1463,1.03847,8.32553,2.45986,12.43966,8.37622,24.24441,34.91595,37.15481,59.16024,28.77883,24.24429-8.37598,37.1544-34.91562,28.77818-59.16003l-12.13673,4.19303Z"/>
  <path class="cls-1" d="m328.25529,98.20441c7.80137-16.85287,27.84654-24.20627,44.68346-16.39177,16.83692,7.81451,24.18804,27.88333,16.38667,44.7362-1.86484,4.02851-4.43526,7.50728-7.48835,10.3728l12.27858,5.69885c2.69822-3.15625,5.02327-6.71806,6.85184-10.66822,10.77571-23.27817.62175-50.99886-22.6344-61.79271-23.25615-10.79386-50.94415-.63674-61.71986,22.64144l11.64207,5.40342Z"/>
  <path class="cls-1" d="m626.85877,200.50385c-.01829.01921-.03456.03937-.05277.05832-7.37813,7.68031-19.62996,7.92604-27.31056.54775-7.68129-7.37896-7.92739-19.63069-.54926-27.31101,4.29516-4.47108,10.23963-6.40376,15.97442-5.79888l-11.8925-11.42441c-4.91681,1.57297-9.52211,4.3507-13.34232,8.32737-12.28374,12.78684-11.87337,33.18298.91395,45.46698,12.78732,12.284,33.18295,11.87494,45.46668-.9119.01838-.01913.03435-.03923.05268-.05841l-9.26032-8.89583Z"/>
  <path class="cls-1" d="m442.8752,146.12668l10.28225,4.33603c.51006-1.82947,1.62912-4.92326,2.45933-6.89411,3.62642-8.60878,10.4297-7.10707,16.60705-4.50208l47.40678,19.99148,5.10148-12.11044-46.59806-19.65044c-17.02392-7.179-26.10259-5.03814-32.27695,9.61919-1.09197,2.59224-2.48663,6.46699-2.98188,9.21036Z"/>
  <path class="cls-1" d="m780.86041,71.34733l9.80268,5.33511c.68952-1.76956,2.11084-4.73656,3.13305-6.61498,4.46508-8.20508,11.08696-6.0354,16.97619-2.83018l45.19569,24.59778,6.28127-11.54252-44.42469-24.17816c-16.22992-8.83314-25.47855-7.60464-33.0808,6.36534-1.3445,2.47067-3.11775,6.18731-3.88338,8.86761Z"/>
  <rect class="cls-1" x="949.76546" y="152.63768" width="85.6578" height="12.84066" transform="translate(476.32601 1021.61816) rotate(-68.20215)"/>
  <rect class="cls-1" x="890.28285" y="86.86621" width="12.84072" height="85.65224" transform="translate(25.6606 379.05456) rotate(-24.20512)"/>
  <rect class="cls-1" x="922.45851" y="115.56191" width="45.65673" height="12.8409" transform="translate(455.89094 939.86902) rotate(-66.45808)"/>
  <path class="cls-1" d="m941.68626,163.05739c6.06419,17.5524-3.28229,36.76619-20.8346,42.83021-17.55231,6.06402-36.76617-3.28267-42.83036-20.83507-1.44958-4.19573-2.00949-8.48553-1.79631-12.6689l-12.80029,4.42228c.24416,4.1463,1.03847,8.32553,2.45986,12.43966,8.37622,24.24441,34.91595,37.15481,59.16024,28.77883,24.24429-8.37598,37.1544-34.91562,28.77818-59.16003l-12.13673,4.19303Z"/>
  <path class="cls-1" d="m1066.48366,188.68051c-.01829.01921-.03456.03937-.05277.05832-7.37813,7.68031-19.62996,7.92604-27.31056.54775-7.68129-7.37896-7.92739-19.63069-.54926-27.31101,4.29516-4.47108,10.23963-6.40376,15.97442-5.79888l-11.8925-11.42441c-4.91681,1.57297-9.52211,4.3507-13.34232,8.32737-12.28374,12.78684-11.87337,33.18298.91395,45.46698,12.78732,12.284,33.18295,11.87494,45.46668-.9119.01838-.01913.03435-.03923.05268-.05841l-9.26032-8.89583Z"/>
  <path class="cls-1" d="m1220.05746,71.90562c.00617.0258.01424.05041.02024.076,2.43162,10.36874-4.02624,20.78338-14.39521,23.21527-10.36991,2.43211-20.78452-4.02535-23.21614-14.39409-1.41556-6.03615.19601-12.0756,3.82286-16.55886l-16.05513,3.76549c-1.35445,4.98145-1.52851,10.3568-.26948,15.72547,4.04837,17.26276,21.38651,28.01227,38.64965,23.96346,17.26315-4.04881,28.01354-21.38606,23.96518-38.64883-.00606-.02583-.01424-.05016-.02036-.07597l-12.50162,2.93207Z"/>
  <path class="cls-1" d="m1541.00461,191.01462c.00617.0258.01424.05041.02024.076,2.43162,10.36874-4.02624,20.78338-14.39521,23.21527-10.36991,2.43211-20.78452-4.02535-23.21614-14.39409-1.41556-6.03615.19601-12.0756,3.82286-16.55886l-16.05513,3.76549c-1.35445,4.98145-1.52851,10.3568-.26948,15.72547,4.04837,17.26276,21.38651,28.01227,38.64965,23.96346,17.26315-4.04881,28.01354-21.38606,23.96518-38.64883-.00606-.02583-.01424-.05016-.02036-.07597l-12.50162,2.93207Z"/>
  <path class="cls-1" d="m1410.71838,183.29039c-.0084-.02516-.01859-.04898-.0268-.07394-3.32807-10.11699,2.19545-21.05586,12.31247-24.38383,10.11793-3.32827,21.05691,2.1953,24.38498,12.31229,1.93743,5.88959.85955,12.04677-2.36187,16.82965l15.66501-5.15297c.91415-5.08076.61801-10.45086-1.10518-15.68918-5.54085-16.84363-23.75188-26.03842-40.59555-20.49773-16.84368,5.54069-26.03868,23.75062-20.49782,40.59425.00829.0252.01857.04873.02691.07391l12.19785-4.01245Z"/>
  <path class="cls-1" d="m1249.15577,117.52981c-.0084-.02516-.01859-.04898-.0268-.07394-3.32807-10.11699,2.19545-21.05586,12.31247-24.38383,10.11793-3.32827,21.05691,2.1953,24.38498,12.31229,1.93743,5.88959.85955,12.04677-2.36187,16.82965l15.66501-5.15297c.91415-5.08076.61801-10.45086-1.10518-15.68918-5.54085-16.84363-23.75188-26.03842-40.59555-20.49773-16.84368,5.54069-26.03868,23.75062-20.49782,40.59425.00829.0252.01857.04873.02691.07391l12.19785-4.01245Z"/>
  <path class="cls-1" d="m1439.65804,54.32395l-7.17585,8.55203c1.60084,1.02608,4.23251,3.00644,5.87444,4.38016,7.17205,6.00047,3.73268,12.06141-.57841,17.19928l-33.08459,39.4295,10.08931,8.44119,32.5202-38.75687c11.88078-14.15926,12.50355-23.4674.29239-33.68382-2.15961-1.80683-5.45762-4.28052-7.93749-5.56146Z"/>
  <path class="cls-1" d="m1468.45748,190.67211l-11.14044-.66857c.12693,1.89487.09963,5.18456-.02844,7.31924-.55944,9.32441-7.4761,10.17135-14.16904,9.76969l-51.36351-3.08246-.787,13.11714,50.48729,3.02988c18.4448,1.10692,26.29713-3.93188,27.24964-19.80763.16846-2.80772.19616-6.92554-.2485-9.67729Z"/>
  <rect class="cls-1" x="1265.38912" y="179.31828" width="85.6578" height="12.84066" transform="translate(649.97526 1331.44786) rotate(-68.20215)"/>
  <rect class="cls-1" x="1476.42191" y="85.94928" width="12.84066" height="85.65226" transform="translate(1189.26247 1587.95845) rotate(-83.58759)"/>
  <rect class="cls-1" x="1087.28314" y="194.58319" width="85.65366" height="12.84074" transform="translate(-12.44225 90.88815) rotate(-4.5803)"/>
  <rect class="cls-1" x="1296.17492" y="118.5055" width="45.65682" height="12.8412" transform="translate(-5.14299 80.06146) rotate(-3.46994)"/>
  <rect class="cls-1" x="1319.35054" y="44.10957" width="45.65682" height="12.8412" transform="translate(-.5977 81.32777) rotate(-3.46994)"/>
  <path class="cls-1" d="m1265.67971,154.26717c6.06419,17.5524-3.28229,36.76619-20.8346,42.83021-17.55231,6.06402-36.76617-3.28267-42.83036-20.83507-1.44958-4.19573-2.00949-8.48553-1.79631-12.6689l-12.80029,4.42228c.24416,4.1463,1.03847,8.32553,2.45986,12.43966,8.37622,24.24441,34.91595,37.15481,59.16024,28.77883,24.24429-8.37598,37.1544-34.91562,28.77818-59.16003l-12.13673,4.19303Z"/>
  <path class="cls-1" d="m1057.87454,117.05243c-1.5623-18.50509,12.21513-34.816,30.71182-36.35928,18.49668-1.54328,34.81623,12.25648,36.37854,30.76157.37345,4.42346-.13823,8.71846-1.3728,12.7195l13.48899-1.12546c.78234-4.07801,1.03973-8.32373.67354-12.66116-2.15795-25.56032-24.69982-44.62166-50.24854-42.48999-25.54871,2.13167-44.57922,24.66161-42.42128,50.22193l12.78973-1.06712Z"/>
  <path class="cls-1" d="m1378.95801,192.08203c-.01829.01921-.03456.03937-.05277.05832-7.37813,7.68031-19.62996,7.92604-27.31056.54775-7.68129-7.37896-7.92739-19.63069-.54926-27.31101,4.29516-4.47108,10.23963-6.40376,15.97442-5.79888l-11.8925-11.42441c-4.91681,1.57297-9.52211,4.3507-13.34232,8.32737-12.28374,12.78684-11.87337,33.18298.91395,45.46698,12.78732,12.284,33.18295,11.87494,45.46668-.9119.01838-.01913.03435-.03923.05268-.05841l-9.26032-8.89583Z"/>
  <path class="cls-1" d="m1160.34397,148.52743l10.28225,4.33603c.51006-1.82947,1.62912-4.92326,2.45933-6.89411,3.62642-8.60878,10.4297-7.10707,16.60705-4.50208l47.40678,19.99148,5.10148-12.11044-46.59806-19.65044c-17.02392-7.179-26.10259-5.03814-32.27695,9.61919-1.09197,2.59224-2.48663,6.46699-2.98188,9.21036Z"/>
  <path class="cls-1" d="m1065.94753,162.5215l9.80268,5.33511c.68952-1.76956,2.11084-4.73656,3.13305-6.61498,4.46508-8.20508,11.08696-6.0354,16.97619-2.83018l45.19569,24.59778,6.28127-11.54252-44.42469-24.17816c-16.22992-8.83314-25.47855-7.60464-33.0808,6.36534-1.3445,2.47067-3.11775,6.18731-3.88338,8.86761Z"/>
  <path class="cls-1" d="m1514.56703,176.60111l9.80268,5.33511c.68952-1.76956,2.11084-4.73656,3.13305-6.61498,4.46508-8.20508,11.08696-6.0354,16.97619-2.83018l45.19569,24.59778,6.28127-11.54252-44.42469-24.17816c-16.22992-8.83314-25.47855-7.60464-33.0808,6.36534-1.3445,2.47067-3.11775,6.18731-3.88338,8.86761Z"/>
  <rect class="cls-1" x="1348.14014" y="89.45011" width="85.65782" height="12.84066" transform="translate(785.44032 1351.78484) rotate(-68.20213)"/>
  <rect class="cls-1" x="835.29907" y="123.27189" width="45.65675" height="12.8409" transform="translate(396.47564 864.59398) rotate(-66.45802)"/>
  <path class="cls-1" d="m666.35476,75.83118c-6.06417-17.5524,3.28233-36.76618,20.83465-42.8302,17.55232-6.06401,36.76616,3.28268,42.83033,20.83508,1.44958,4.19573,2.00948,8.48553,1.79629,12.6689l12.80029-4.42227c-.24415-4.1463-1.03846-8.32553-2.45985-12.43965-8.37619-24.24441-34.91591-37.15482-59.1602-28.77884-24.2443,8.37597-37.15444,34.91561-28.77825,59.16002l12.13674-4.19303Z"/>
  <path class="cls-1" d="m974.16241,69.3559c.01829-.01921.03456-.03937.05277-.05832,7.37814-7.68031,19.62997-7.92604,27.31056-.54775,7.68129,7.37896,7.92736,19.63069.54923,27.311-4.29517,4.47108-10.23964,6.40376-15.97442,5.79887l11.89249,11.42441c4.91681-1.57296,9.52212-4.3507,13.34233-8.32737,12.28375-12.78684,11.87341-33.18297-.91389-45.46698-12.7873-12.28401-33.18293-11.87494-45.46669.91189-.01838.01913-.03435.03923-.05268.05841l9.26031,8.89583Z"/>
  <path class="cls-1" d="m180.32949,141.12628c-.00617-.0258-.01424-.05041-.02024-.076-2.43161-10.36874,4.02626-20.78338,14.39524-23.21526,10.36991-2.4321,20.78451,4.02535,23.21612,14.39409,1.41556,6.03614-.19602,12.07559-3.82289,16.55886l16.05513-3.76549c1.35445-4.98144,1.52852-10.3568.2695-15.72547-4.04835-17.26276-21.38647-28.01227-38.64962-23.96346-17.26315,4.04881-28.01357,21.38605-23.96522,38.64882.00606.02583.01424.05016.02036.07597l12.50163-2.93207Z"/>
  <path class="cls-1" d="m56.43984,207.32157c-.00617-.0258-.01424-.05041-.02024-.076-2.43161-10.36874,4.02626-20.78338,14.39524-23.21526,10.36991-2.4321,20.78451,4.02535,23.21612,14.39409,1.41556,6.03614-.19602,12.07559-3.82289,16.55886l16.05513-3.76549c1.35445-4.98144,1.52852-10.3568.2695-15.72547-4.04835-17.26276-21.38647-28.01227-38.64962-23.96346-17.26315,4.04881-28.01357,21.38605-23.96522,38.64882.00606.02583.01424.05016.02036.07597l12.50163-2.93207Z"/>
  <path class="cls-1" d="m281.56707,132.32609l7.17586-8.55203c-1.60084-1.02608-4.23251-3.00644-5.87444-4.38016-7.17205-6.00048-3.73267-12.06141.57843-17.19927l33.08464-39.42949-10.0893-8.44119-32.52025,38.75686c-11.8808,14.15926-12.50358,23.46739-.29243,33.68381,2.15961,1.80683,5.45761,4.28052,7.93748,5.56146Z"/>
  <path class="cls-1" d="m1416.176,53.75543l10.90685,2.36327c.16447-1.89189.69474-5.13857,1.1479-7.22847,1.97941-9.12881,8.94412-8.90868,15.49672-7.48888l50.2865,10.89595,2.78454-12.84198-49.42866-10.71007c-18.05804-3.91277-26.58872-.13354-29.95887,15.40919-.59603,2.74882-1.2534,6.81379-1.23497,9.601Z"/>
  <path class="cls-1" d="m529.91184,72.57884l11.14044.66857c-.12693-1.89487-.09963-5.18456.02845-7.31924.55945-9.32441,7.47612-10.17135,14.16905-9.76969l51.3635,3.08247.78701-13.11714-50.48729-3.02989c-18.4448-1.10692-26.29714,3.93187-27.24966,19.80763-.16846,2.80772-.19617,6.92554.24849,9.67729Z"/>
  <rect class="cls-1" x="213.1256" y="-8.81512" width="12.84066" height="85.65225" transform="translate(161.22764 248.38483) rotate(-83.58752)"/>
  <rect class="cls-1" x="420.89424" y="37.65429" width="85.65367" height="12.84074" transform="translate(-2.03868 37.17116) rotate(-4.58023)"/>
  <rect class="cls-1" x="876.19009" y="55.69406" width="85.65367" height="12.84074" transform="translate(-2.02526 73.58639) rotate(-4.58023)"/>
  <rect class="cls-1" x="1221.18065" y="44.84604" width="45.65682" height="12.8412" transform="translate(-.82226 75.38715) rotate(-3.46993)"/>
  <rect class="cls-1" x="52.39648" y="102.10737" width="45.65682" height="12.8412" transform="translate(-6.4307 4.75192) rotate(-3.46993)"/>
  <path class="cls-1" d="m14.69033,95.9274c-6.06417-17.5524,3.28233-36.76618,20.83465-42.8302,17.55232-6.06401,36.76616,3.28268,42.83033,20.83508,1.44958,4.19573,2.00948,8.48553,1.79629,12.6689l12.80029-4.42227c-.24415-4.1463-1.03846-8.32553-2.45985-12.43965-8.37619-24.24441-34.91591-37.15482-59.1602-28.77884C7.08755,49.33639-5.82259,75.87602,2.5536,100.12043l12.13674-4.19303Z"/>
  <path class="cls-1" d="m827.53742,101.89842c-7.80139,16.85286-27.84657,24.20627-44.68348,16.39176-16.83691-7.81451-24.18801-27.88333-16.38661-44.73619,1.86485-4.02851,4.43527-7.50728,7.48837-10.37279l-12.27857-5.69885c-2.69822,3.15625-5.02328,6.71805-6.85186,10.66822-10.77574,23.27817-.62182,50.99885,22.63432,61.79271,23.25613,10.79386,50.94415.63675,61.71989-22.64142l-11.64206-5.40342Z"/>
  <path class="cls-1" d="m1526.85886,68.42831c.01538.0216.03208.0414.04722.06287,6.1372,8.70124,4.04802,20.77617-4.657,26.91621-8.70581,6.14059-20.7815,4.05679-26.9187-4.64446-3.57276-5.06541-4.33958-11.26824-2.65487-16.78358l-13.4787,9.50713c.60912,5.12564,2.46034,10.17414,5.63803,14.67942,10.21774,14.48657,30.32093,17.95493,44.81379,7.73247,14.49286-10.22246,17.97072-30.32359,7.75298-44.81016-.01529-.02167-.03199-.04117-.04732-.0628l-10.49544,7.4029Z"/>
  <path class="cls-1" d="m1169.11225,41.53992l-9.80267-5.33511c-.68952,1.76956-2.11084,4.73656-3.13305,6.61498-4.46509,8.20507-11.08697,6.03539-16.97619,2.83018l-45.19566-24.59778-6.28128,11.54252,44.42467,24.17817c16.22991,8.83314,25.47854,7.60464,33.08081-6.36534,1.34451-2.47067,3.11776-6.18731,3.88339-8.86761Z"/>
  <path class="cls-1" d="m239.80898,71.75438l-9.80267-5.33511c-.68952,1.76956-2.11084,4.73656-3.13305,6.61498-4.46509,8.20507-11.08697,6.03539-16.97619,2.83018l-45.19566-24.59778-6.28128,11.54252,44.42467,24.17817c16.22991,8.83314,25.47854,7.60464,33.08081-6.36534,1.34451-2.47067,3.11776-6.18731,3.88339-8.86761Z"/>
  </g>
</svg>